<?xml version="1.0" encoding="utf-8"?>
<!-- Generator: Adobe Illustrator 27.7.0, SVG Export Plug-In . SVG Version: 6.00 Build 0)  -->
<svg version="1.1" id="Capa_1" xmlns="http://www.w3.org/2000/svg" xmlns:xlink="http://www.w3.org/1999/xlink" x="0px" y="0px"
	 viewBox="0 0 1063.49 367.68" style="enable-background:new 0 0 1063.49 367.68;" xml:space="preserve">
<style type="text/css">
	.st0{fill:#FFFFFF;}
	.st1{fill:#064892;}
	.st2{fill:#E10A19;}
	.st3{fill:#034A8F;}
	.st4{fill:#E00D1C;}
	.st5{fill:#1D1D1B;}
	.st6{fill:#083CA3;}
	.st7{fill:#273A80;}
	.st8{fill:#0C1E56;}
	.st9{fill:#ED6806;}
	.st10{fill:url(#SVGID_1_);}
	.st11{opacity:0.5653;fill:#808285;}
	.st12{opacity:0.7657;fill:#808285;}
	.st13{opacity:0.5793;fill:#808285;}
	.st14{opacity:0.901;fill:#808285;}
	.st15{opacity:0.8562;fill:#808285;}
	.st16{opacity:0.9361;fill:#808285;}
	.st17{opacity:0.6204;fill:#808285;}
	.st18{opacity:0.9207;fill:#808285;}
	.st19{opacity:0.7779;fill:#808285;}
	.st20{opacity:0.6118;fill:#808285;}
	.st21{opacity:0.6984;fill:#808285;}
	.st22{opacity:0.8157;fill:#808285;}
	.st23{opacity:0.5715;fill:#808285;}
	.st24{opacity:0.8677;fill:#808285;}
	.st25{opacity:0.5475;fill:#808285;}
	.st26{opacity:0.8834;fill:#808285;}
	.st27{opacity:0.5245;fill:#808285;}
	.st28{opacity:0.7529;fill:#808285;}
	.st29{opacity:0.8927;fill:#808285;}
	.st30{opacity:0.8384;fill:#808285;}
	.st31{opacity:0.6654;fill:#808285;}
	.st32{opacity:0.6262;fill:#808285;}
	.st33{opacity:0.5193;fill:#808285;}
	.st34{opacity:0.9905;fill:#808285;}
	.st35{opacity:0.517;fill:#808285;}
	.st36{opacity:0.6479;fill:#808285;}
	.st37{opacity:0.9857;fill:#808285;}
	.st38{opacity:0.7696;fill:#808285;}
	.st39{opacity:0.8062;fill:#808285;}
	.st40{opacity:0.9977;fill:#808285;}
	.st41{opacity:0.6323;fill:#808285;}
	.st42{opacity:0.5774;fill:#808285;}
	.st43{opacity:0.6004;fill:#808285;}
	.st44{opacity:0.6006;fill:#808285;}
	.st45{opacity:0.6198;fill:#808285;}
	.st46{opacity:0.9164;fill:#808285;}
	.st47{opacity:0.5577;fill:#808285;}
	.st48{opacity:0.6643;fill:#808285;}
	.st49{opacity:0.9482;fill:#808285;}
	.st50{opacity:0.8287;fill:#808285;}
	.st51{opacity:0.9627;fill:#808285;}
	.st52{opacity:0.6877;fill:#808285;}
	.st53{opacity:0.5544;fill:#808285;}
	.st54{opacity:0.8016;fill:#808285;}
	.st55{opacity:0.5003;fill:#808285;}
	.st56{opacity:0.7569;fill:#808285;}
	.st57{opacity:0.9339;fill:#808285;}
	.st58{opacity:0.6722;fill:#808285;}
	.st59{opacity:0.5645;fill:#808285;}
	.st60{opacity:0.7115;fill:#808285;}
	.st61{opacity:0.6307;fill:#808285;}
	.st62{opacity:0.9278;fill:#808285;}
	.st63{opacity:0.6392;fill:#808285;}
	.st64{opacity:0.8937;fill:#808285;}
	.st65{opacity:0.6526;fill:#808285;}
	.st66{opacity:0.6213;fill:#808285;}
	.st67{opacity:0.9916;fill:#808285;}
	.st68{opacity:0.5206;fill:#808285;}
	.st69{opacity:0.5092;fill:#808285;}
	.st70{opacity:0.6455;fill:#808285;}
	.st71{opacity:0.5075;fill:#808285;}
	.st72{opacity:0.6536;fill:#808285;}
	.st73{opacity:0.716;fill:#808285;}
	.st74{opacity:0.6878;fill:#808285;}
	.st75{opacity:0.8538;fill:#808285;}
	.st76{opacity:0.811;fill:#808285;}
	.st77{opacity:0.6353;fill:#808285;}
	.st78{opacity:0.9972;fill:#808285;}
	.st79{opacity:0.9775;fill:#808285;}
	.st80{opacity:0.6343;fill:#808285;}
	.st81{opacity:0.8543;fill:#808285;}
	.st82{opacity:0.6795;fill:#808285;}
	.st83{opacity:0.8144;fill:#808285;}
	.st84{opacity:0.728;fill:#808285;}
	.st85{opacity:0.7587;fill:#808285;}
	.st86{opacity:0.7652;fill:#808285;}
	.st87{opacity:0.9334;fill:#808285;}
	.st88{opacity:0.6915;fill:#808285;}
	.st89{opacity:0.5175;fill:#808285;}
	.st90{opacity:0.7801;fill:#808285;}
	.st91{opacity:0.8122;fill:#808285;}
	.st92{opacity:0.7332;fill:#808285;}
	.st93{opacity:0.6303;fill:#808285;}
	.st94{opacity:0.5225;fill:#808285;}
	.st95{opacity:0.7847;fill:#808285;}
	.st96{opacity:0.9423;fill:#808285;}
	.st97{opacity:0.8348;fill:#808285;}
	.st98{opacity:0.6404;fill:#808285;}
	.st99{opacity:0.8945;fill:#808285;}
	.st100{opacity:0.8456;fill:#808285;}
	.st101{opacity:0.9902;fill:#808285;}
	.st102{opacity:0.7274;fill:#808285;}
	.st103{opacity:0.9855;fill:#808285;}
	.st104{opacity:0.5371;fill:#808285;}
	.st105{opacity:0.7825;fill:#808285;}
	.st106{opacity:0.5344;fill:#808285;}
	.st107{opacity:0.9922;fill:#808285;}
	.st108{opacity:0.6301;fill:#808285;}
	.st109{opacity:0.8077;fill:#808285;}
	.st110{opacity:0.7663;fill:#808285;}
	.st111{opacity:0.5432;fill:#808285;}
	.st112{opacity:0.8535;fill:#808285;}
	.st113{opacity:0.5589;fill:#808285;}
	.st114{opacity:0.8499;fill:#808285;}
	.st115{opacity:0.6091;fill:#808285;}
	.st116{opacity:0.5784;fill:#808285;}
	.st117{opacity:0.7656;fill:#808285;}
	.st118{opacity:0.5656;fill:#808285;}
	.st119{opacity:0.9124;fill:#808285;}
	.st120{opacity:0.9768;fill:#808285;}
	.st121{opacity:0.9016;fill:#808285;}
	.st122{opacity:0.6844;fill:#808285;}
	.st123{opacity:0.9473;fill:#808285;}
	.st124{opacity:0.9003;fill:#808285;}
	.st125{opacity:0.935;fill:#808285;}
	.st126{opacity:0.5725;fill:#808285;}
	.st127{opacity:0.7228;fill:#808285;}
	.st128{opacity:0.7894;fill:#808285;}
	.st129{opacity:0.8898;fill:#808285;}
	.st130{opacity:0.5427;fill:#808285;}
	.st131{opacity:0.8321;fill:#808285;}
	.st132{opacity:0.5515;fill:#808285;}
	.st133{opacity:0.7361;fill:#808285;}
	.st134{opacity:0.5694;fill:#808285;}
	.st135{opacity:0.7041;fill:#808285;}
	.st136{opacity:0.9472;fill:#808285;}
	.st137{opacity:0.988;fill:#808285;}
	.st138{opacity:0.5764;fill:#808285;}
	.st139{opacity:0.6501;fill:#808285;}
	.st140{opacity:0.6553;fill:#808285;}
	.st141{opacity:0.6531;fill:#808285;}
	.st142{opacity:0.7985;fill:#808285;}
	.st143{opacity:0.8668;fill:#808285;}
	.st144{opacity:0.8785;fill:#808285;}
	.st145{opacity:0.74;fill:#808285;}
	.st146{opacity:0.9974;fill:#808285;}
	.st147{opacity:0.9965;fill:#808285;}
	.st148{opacity:0.5958;fill:#808285;}
	.st149{opacity:0.502;fill:#808285;}
	.st150{opacity:0.8656;fill:#808285;}
	.st151{opacity:0.6714;fill:#808285;}
	.st152{opacity:0.9386;fill:#808285;}
	.st153{opacity:0.8257;fill:#808285;}
	.st154{opacity:0.8822;fill:#808285;}
	.st155{opacity:0.7249;fill:#808285;}
	.st156{opacity:0.85;fill:#808285;}
	.st157{opacity:0.7173;fill:#808285;}
	.st158{opacity:0.7483;fill:#808285;}
	.st159{opacity:0.9308;fill:#808285;}
	.st160{opacity:0.9474;fill:#808285;}
	.st161{opacity:0.5499;fill:#808285;}
	.st162{opacity:0.5903;fill:#808285;}
	.st163{opacity:0.8516;fill:#808285;}
	.st164{opacity:0.9669;fill:#808285;}
	.st165{opacity:0.8412;fill:#808285;}
	.st166{opacity:0.994;fill:#808285;}
	.st167{opacity:0.9394;fill:#808285;}
	.st168{opacity:0.7716;fill:#808285;}
	.st169{opacity:0.6715;fill:#808285;}
	.st170{opacity:0.9459;fill:#808285;}
	.st171{opacity:0.5261;fill:#808285;}
	.st172{opacity:0.5223;fill:#808285;}
	.st173{opacity:0.8962;fill:#808285;}
	.st174{opacity:0.5211;fill:#808285;}
	.st175{opacity:0.6374;fill:#808285;}
	.st176{opacity:0.5189;fill:#808285;}
	.st177{opacity:0.5082;fill:#808285;}
	.st178{opacity:0.5792;fill:#808285;}
	.st179{opacity:0.9861;fill:#808285;}
	.st180{opacity:0.9808;fill:#808285;}
	.st181{opacity:0.9699;fill:#808285;}
	.st182{opacity:0.9622;fill:#808285;}
	.st183{opacity:0.6304;fill:#808285;}
	.st184{opacity:0.8387;fill:#808285;}
	.st185{opacity:0.9051;fill:#808285;}
	.st186{opacity:0.6545;fill:#808285;}
	.st187{opacity:0.9574;fill:#808285;}
	.st188{opacity:0.8086;fill:#808285;}
	.st189{opacity:0.5531;fill:#808285;}
	.st190{opacity:0.9538;fill:#808285;}
	.st191{opacity:0.8754;fill:#808285;}
	.st192{opacity:0.5051;fill:#808285;}
	.st193{opacity:0.8517;fill:#808285;}
	.st194{opacity:0.61;fill:#808285;}
	.st195{opacity:0.6181;fill:#808285;}
	.st196{opacity:0.876;fill:#808285;}
	.st197{opacity:0.5845;fill:#808285;}
	.st198{opacity:0.8471;fill:#808285;}
	.st199{opacity:0.7774;fill:#808285;}
	.st200{opacity:0.6187;fill:#808285;}
	.st201{opacity:0.6525;fill:#808285;}
	.st202{opacity:0.6134;fill:#808285;}
	.st203{opacity:0.951;fill:#808285;}
	.st204{opacity:0.6256;fill:#808285;}
	.st205{opacity:0.6699;fill:#808285;}
	.st206{opacity:0.6867;fill:#808285;}
	.st207{opacity:0.975;fill:#808285;}
	.st208{opacity:0.9056;fill:#808285;}
	.st209{opacity:0.862;fill:#808285;}
	.st210{opacity:0.5437;fill:#808285;}
	.st211{opacity:0.8559;fill:#808285;}
	.st212{opacity:0.691;fill:#808285;}
	.st213{opacity:0.6169;fill:#808285;}
	.st214{opacity:0.5121;fill:#808285;}
	.st215{opacity:0.8706;fill:#808285;}
	.st216{opacity:0.6625;fill:#808285;}
	.st217{opacity:0.6645;fill:#808285;}
	.st218{opacity:0.6405;fill:#808285;}
	.st219{opacity:0.5246;fill:#808285;}
	.st220{opacity:0.7605;fill:#808285;}
	.st221{opacity:0.6166;fill:#808285;}
	.st222{opacity:0.5032;fill:#808285;}
	.st223{opacity:0.9074;fill:#808285;}
	.st224{opacity:0.6002;fill:#808285;}
	.st225{opacity:0.6607;fill:#808285;}
	.st226{opacity:0.5786;fill:#808285;}
	.st227{opacity:0.9283;fill:#808285;}
	.st228{opacity:0.6334;fill:#808285;}
	.st229{opacity:0.6939;fill:#808285;}
	.st230{opacity:0.7705;fill:#808285;}
	.st231{opacity:0.8428;fill:#808285;}
	.st232{opacity:0.9917;fill:#808285;}
	.st233{opacity:0.9612;fill:#808285;}
	.st234{opacity:0.6836;fill:#808285;}
	.st235{opacity:0.9087;fill:#808285;}
	.st236{opacity:0.7254;fill:#808285;}
	.st237{opacity:0.5217;fill:#808285;}
	.st238{opacity:0.758;fill:#808285;}
	.st239{opacity:0.5672;fill:#808285;}
	.st240{opacity:0.6639;fill:#808285;}
	.st241{opacity:0.7845;fill:#808285;}
	.st242{opacity:0.8686;fill:#808285;}
	.st243{opacity:0.9438;fill:#808285;}
	.st244{opacity:0.8488;fill:#808285;}
	.st245{opacity:0.5604;fill:#808285;}
	.st246{opacity:0.8646;fill:#808285;}
	.st247{opacity:0.5312;fill:#808285;}
	.st248{opacity:0.7235;fill:#808285;}
	.st249{opacity:0.5885;fill:#808285;}
	.st250{opacity:0.8858;fill:#808285;}
	.st251{opacity:0.5875;fill:#808285;}
	.st252{opacity:0.9745;fill:#808285;}
	.st253{opacity:0.6677;fill:#808285;}
	.st254{opacity:0.779;fill:#808285;}
</style>
<g>
	<g>
		<path class="st3" d="M471.43,219.08h-74.64c-6.75,0-12.27-5.52-12.27-12.27c0-6.75,5.52-12.27,12.27-12.27h74.64
			c6.75,0,12.27,5.52,12.27,12.27C483.7,213.56,478.18,219.08,471.43,219.08"/>
		<path class="st3" d="M438.91,95.78l9.41,18.81c0.82,1.64,2.25,2.66,3.88,2.86l20.86,3.07c4.29,0.62,6.13,5.93,2.86,9l-15.13,14.72
			c-1.23,1.23-1.84,3.06-1.43,4.7l3.48,20.65c0.82,4.3-3.89,7.57-7.77,5.52l-18.61-9.81c-1.64-0.82-3.48-0.82-4.91,0l-18.61,9.81
			c-3.89,2.04-8.38-1.23-7.77-5.52l3.48-20.65c0.21-1.64-0.2-3.47-1.43-4.7l-15.13-14.72c-3.06-3.07-1.43-8.38,2.87-9l20.86-3.07
			c1.64-0.2,3.27-1.43,3.89-2.86l9.4-18.81C431.35,91.89,436.87,91.89,438.91,95.78"/>
		<path class="st4" d="M511.3,141.38c0-31.08,18.2-48.67,54.6-48.67c26.79,0,44.37,12.27,50.71,31.08
			c1.84,5.93,0.41,8.59-5.11,10.63l-10.43,3.27c-5.72,2.04-8.38,0.61-10.43-4.91c-4.09-10.63-12.88-15.95-25.76-15.95
			c-17.38,0-25.77,7.77-25.77,23.31v34.97c0,14.93,8.99,23.31,25.77,23.31c13.08,0,21.88-5.52,25.76-16.36
			c2.04-5.72,4.7-6.54,10.43-4.7l10.63,3.07c5.52,2.04,7.16,5.72,4.91,10.63c-8.38,21.06-25.76,31.49-52.76,31.49
			c-35.17,0-52.35-17.59-52.35-48.67v-32.51H511.3z"/>
		<path class="st4" d="M662.21,43.84c5.52,0,7.16,1.84,7.16,7.36v44.99c2.66-1.23,15.95-3.27,28.42-3.27
			c32.92,0,49.28,15.95,49.28,47.65v71.36c0,5.52-1.84,7.36-7.36,7.36h-12.88c-5.52,0-7.36-1.84-7.36-7.36v-70.75
			c0-15.33-8.59-23.31-25.77-23.31c-11.65,0-19.63,1.23-24.33,3.47v90.38c0,5.52-1.64,7.36-7.16,7.36h-13.09
			c-5.52,0-7.36-1.84-7.36-7.36V50.99c0-5.52,1.84-7.36,7.36-7.36h13.09V43.84z"/>
		<path class="st4" d="M797.58,96.39c5.52,0,7.36,1.64,7.36,7.15v108.38c0,5.52-1.84,7.36-7.36,7.36h-13.08
			c-5.52,0-7.16-1.84-7.16-7.36V103.55c0-5.52,1.64-7.15,7.16-7.15H797.58z M791.85,50.38c11.04,0,14.52,3.48,14.52,14.31v2.04
			c0,11.04-3.27,14.52-14.52,14.52h-1.64c-10.63,0-14.52-3.27-14.52-14.52V64.7c0-10.63,3.27-14.31,14.52-14.31H791.85z"/>
		<path class="st4" d="M864.45,211.72c0,5.52-1.84,7.36-7.36,7.36H844.2c-5.72,0-7.36-1.84-7.36-7.36V51c0-5.52,1.64-7.36,7.36-7.36
			h12.88c5.52,0,7.36,1.84,7.36,7.36V211.72z"/>
		<path class="st4" d="M974.66,140.15c0-15.33-9.2-24.13-27.2-24.13c-17.79,0-27.4,8.79-27.4,24.13v5.11h54.8v-5.11H974.66z
			 M892.46,144.03c0-33.13,19.22-51.12,55.01-51.12c35.99,0,54.8,20.45,54.8,49.08v14.52c0,6.95-3.48,10.23-10.63,10.23h-71.57v8.79
			c0,15.33,9.82,23.72,26.99,23.72c13.29,0,22.49-4.3,28.01-12.48c3.89-5.52,6.34-5.93,12.07-2.86l8.38,4.5
			c5.52,2.66,6.34,6.34,2.86,11.86c-9.2,15.13-26.38,22.7-51.12,22.7c-37.01,0-54.6-19.63-54.6-50.71v-28.22H892.46z"/>
		<path class="st3" d="M115.62,92.71c33.13,0,49.28,16.97,49.28,47.65v71.36c0,5.52-1.84,7.36-7.36,7.36h-13.09
			c-5.52,0-7.16-1.84-7.16-7.36v-70.55c0-15.54-8.38-23.31-25.76-23.31c-7.57,0-15.13,1.02-22.7,3.07
			c-1.23,0.41-1.64,1.23-1.64,2.45v88.34c0,5.52-1.64,7.36-7.16,7.36H66.96c-5.31,0-7.36-1.84-7.36-7.36v-97.34
			c0-7.57,1.64-10.43,9.21-13.49C82.5,95.37,97.83,92.71,115.62,92.71"/>
		<path class="st3" d="M215.41,96.39c5.52,0,7.36,1.64,7.36,7.15v108.38c0,5.52-1.84,7.36-7.36,7.36h-13.08
			c-5.52,0-7.16-1.84-7.16-7.36V103.55c0-5.52,1.64-7.15,7.16-7.15H215.41z M209.69,50.38c11.04,0,14.52,3.48,14.52,14.31v2.04
			c0,11.04-3.27,14.52-14.52,14.52h-1.64c-10.63,0-14.52-3.27-14.52-14.52V64.7c0-10.63,3.27-14.31,14.52-14.31H209.69z"/>
		<path class="st3" d="M249.97,141.38c0-31.08,18.2-48.67,54.6-48.67c26.79,0,44.37,12.27,50.71,31.08
			c1.84,5.93,0.41,8.59-5.11,10.63l-10.43,3.27c-5.72,2.04-8.38,0.61-10.43-4.91c-4.09-10.63-12.88-15.95-25.77-15.95
			c-17.38,0-25.76,7.77-25.76,23.31v34.97c0,14.93,8.99,23.31,25.76,23.31c13.09,0,21.88-5.52,25.77-16.36
			c2.04-5.72,4.7-6.54,10.43-4.7l10.63,3.07c5.52,2.04,7.16,5.72,4.91,10.63c-8.38,21.06-25.76,31.49-52.76,31.49
			c-34.97,0-52.35-17.59-52.35-48.67v-32.51H249.97z"/>
	</g>
	<g>
		<path class="st3" d="M271.43,303.1h-11.72v20.14h-6.46v-51.47h19.52c9.63,0,16.76,6.56,16.76,15.74c0,7.24-4.58,12.89-11.35,14.85
			l12.32,20.89h-7.27L271.43,303.1z M259.71,296.99h12.74c6.3,0,10.51-3.98,10.51-9.54c0-5.51-4.22-9.55-10.51-9.55h-12.74V296.99z"
			/>
		<path class="st3" d="M345.54,317.06v6.18h-29.96v-51.47h29.15v6.12h-22.69v15.91h20.78v5.98h-20.78v17.28H345.54z"/>
		<path class="st3" d="M367.57,307.39h6.59c0,6.4,5.21,10.2,12.34,10.2c6.46,0,11.57-3.43,11.57-8.88c0-6.02-6.11-7.44-12.79-9
			c-7.94-1.89-16.74-4-16.74-14.27c0-8.89,6.87-14.32,17.52-14.32c10.68,0,17.2,5.92,17.2,15.25h-6.38c0-5.72-4.67-9.06-10.95-9.06
			c-6.25,0-10.93,2.98-10.93,7.86c0,5.65,5.92,7.07,12.52,8.62c8.09,1.97,17.21,4.14,17.21,14.85c0,9.72-7.9,15.26-18.16,15.26
			C375.23,323.9,367.57,317.52,367.57,307.39z"/>
		<path class="st3" d="M460.05,317.06v6.18h-29.96v-51.47h29.15v6.12h-22.69v15.91h20.78v5.98h-20.78v17.28H460.05z"/>
		<path class="st3" d="M516.59,310.92h-24.74l-5.03,12.33h-6.86l21.06-51.47h6.02l21.65,51.47h-6.99L516.59,310.92z M494.26,305.01
			h19.9l-10.04-24.35L494.26,305.01z"/>
		<path class="st3" d="M570.13,303.1h-11.72v20.14h-6.46v-51.47h19.52c9.63,0,16.76,6.56,16.76,15.74c0,7.24-4.58,12.89-11.35,14.85
			l12.32,20.89h-7.27L570.13,303.1z M558.42,296.99h12.74c6.3,0,10.51-3.98,10.51-9.54c0-5.51-4.22-9.55-10.51-9.55h-12.74V296.99z"
			/>
		<path class="st3" d="M610.79,297.52c0-15.44,11.09-26.55,26.38-26.55c11.91,0,21.45,7.09,24.4,18.2h-6.59
			c-2.74-7.44-9.36-11.88-17.81-11.88c-11.48,0-19.79,8.39-19.79,20.23c0,11.84,8.3,20.21,19.79,20.21
			c8.67,0,15.38-4.74,18.05-12.64h6.59c-2.94,11.64-12.5,18.95-24.64,18.95C621.86,324.05,610.79,312.95,610.79,297.52z"/>
		<path class="st3" d="M725.86,271.77v51.47h-6.45v-23.39h-26.64v23.39h-6.46v-51.47h6.46v21.9h26.64v-21.9H725.86z"/>
		<path class="st3" d="M818.21,317.2v6.05h-29.07v-51.47h6.46v45.42H818.21z"/>
		<path class="st3" d="M872.62,310.92h-24.74l-5.03,12.33H836l21.06-51.47h6.02l21.65,51.47h-6.99L872.62,310.92z M850.3,305.01
			h19.9l-10.04-24.35L850.3,305.01z"/>
		<path class="st3" d="M936.51,296.54c4.76,2.04,7.68,6.91,7.68,12.53c0,7.98-6.74,14.17-15.59,14.17H908v-51.47h20.33
			c8.42,0,14.51,5.64,14.51,13.14C942.84,289.53,940.37,294.27,936.51,296.54L936.51,296.54z M928.19,278.09h-13.81v15.42h13.85
			c4.58,0,8.02-3.44,8.02-7.72C936.26,281.41,932.72,278.09,928.19,278.09z M928.53,316.86c5.15,0,9.01-3.59,9.01-8.52
			c0-4.85-3.85-8.51-8.98-8.51h-14.18v17.03L928.53,316.86L928.53,316.86z"/>
		<path class="st3" d="M966.75,307.39h6.59c0,6.4,5.21,10.2,12.34,10.2c6.46,0,11.57-3.43,11.57-8.88c0-6.02-6.11-7.44-12.79-9
			c-7.94-1.89-16.74-4-16.74-14.27c0-8.89,6.87-14.32,17.52-14.32c10.68,0,17.2,5.92,17.2,15.25h-6.38c0-5.72-4.67-9.06-10.95-9.06
			c-6.25,0-10.93,2.98-10.93,7.86c0,5.65,5.92,7.07,12.52,8.62c8.09,1.97,17.21,4.14,17.21,14.85c0,9.72-7.9,15.26-18.16,15.26
			C974.41,323.9,966.75,317.52,966.75,307.39z"/>
	</g>
</g>
</svg>
